<?xml version="1.0" encoding="UTF-8"?>
<svg version="1.1" xmlns="http://www.w3.org/2000/svg" width="512" height="512">
<path d="M0 0 C0.74926758 0.26844727 1.49853516 0.53689453 2.27050781 0.81347656 C34.33878861 12.47584368 65.20302971 31.4955384 86 59 C87.18142578 60.48113281 87.18142578 60.48113281 88.38671875 61.9921875 C104.25948499 82.43718789 112.44159354 107.63971517 116 133 C116.13148438 133.91136719 116.26296875 134.82273437 116.3984375 135.76171875 C119.19100112 159.80040831 117.64283527 186.81850364 103 207 C94.80416891 216.89518268 83.79237865 223.26333113 71 225 C44.899965 227.15917208 22.6576544 220.22581879 -1.65625 211.875 C-2.38100021 211.62695618 -3.10575043 211.37891235 -3.85246277 211.12335205 C-7.07204846 210.01882114 -10.28142163 208.89766486 -13.48046875 207.734375 C-15.02154297 207.18523437 -15.02154297 207.18523437 -16.59375 206.625 C-17.45677734 206.30789063 -18.31980469 205.99078125 -19.20898438 205.6640625 C-26.52903049 203.92241402 -32.1490831 205.36166828 -39.01171875 207.88671875 C-39.86063187 208.18560501 -40.70954498 208.48449127 -41.58418274 208.79243469 C-44.28963661 209.74569963 -46.98901161 210.71470741 -49.6875 211.6875 C-69.42838937 218.79145641 -89.04644898 225.15021923 -110.1875 225.25 C-111.7972168 225.2809375 -111.7972168 225.2809375 -113.43945312 225.3125 C-128.33356267 225.3845828 -140.85418047 220.74090902 -151.6796875 210.44140625 C-167.755227 193.52690762 -169.68605621 171.06728618 -169.21875 148.82421875 C-167.86036921 107.11513668 -151.65021524 69.44936168 -121.43896484 40.50439453 C-91.13312039 12.3429612 -41.96196964 -15.40742602 0 0 Z " fill="#3D98FF" transform="translate(282,251)"/>
<path d="M0 0 C9.04521322 7.02393652 16.27724936 15.0999808 21.796875 25.171875 C22.57804687 26.57179688 22.57804687 26.57179688 23.375 28 C39.57111253 58.59265701 41.516995 97.78947888 31.421875 130.609375 C26.25267135 146.38038486 19.50540881 159.26522725 7.796875 171.171875 C7.08660156 171.89503906 6.37632812 172.61820313 5.64453125 173.36328125 C-5.94682315 184.40965334 -19.18357145 187.83108558 -34.71875 187.484375 C-49.21289503 186.75296314 -61.39396966 178.32631261 -71.203125 168.171875 C-85.67521973 151.62889816 -93.79320761 129.89242913 -96.203125 108.171875 C-96.31269531 107.21539062 -96.42226563 106.25890625 -96.53515625 105.2734375 C-99.75894713 72.5197222 -93.50335089 38.69141665 -73.01171875 12.35546875 C-54.21017199 -9.67496619 -24.72125005 -16.7189957 0 0 Z " fill="#54ABFF" transform="translate(362.203125,44.828125)"/>
<path d="M0 0 C1.26457031 0.00845947 1.26457031 0.00845947 2.5546875 0.01708984 C8.70375541 0.13707745 14.03891219 0.73422473 19.6875 3.3125 C20.55117187 3.69148438 21.41484375 4.07046875 22.3046875 4.4609375 C40.37572803 13.31728314 52.88599654 31.07296355 59.53613281 49.68798828 C62.76984221 59.36860274 65.55935153 69.14451251 66.6875 79.3125 C66.79707031 80.26898438 66.90664062 81.22546875 67.01953125 82.2109375 C70.22820169 114.81102921 64.17587364 149.7305571 43.05078125 175.609375 C34.19416297 185.99195392 23.11953296 193.31669863 9.6875 196.3125 C-6.84269637 197.32999947 -20.78556803 195.08323058 -33.82519531 184.03027344 C-41.68744587 177.05529881 -47.28694775 169.56515227 -52.3125 160.3125 C-52.78171875 159.48234375 -53.2509375 158.6521875 -53.734375 157.796875 C-69.33263894 128.71862988 -70.62266297 90.1309241 -61.56762695 58.92358398 C-56.48610966 42.40323853 -49.50487857 28.71117939 -37.3125 16.3125 C-36.60222656 15.58933594 -35.89195312 14.86617187 -35.16015625 14.12109375 C-25.3345222 4.75742442 -13.5164761 -0.09431353 0 0 Z " fill="#68BBFF" transform="translate(179.3125,35.6875)"/>
<path d="M0 0 C22.77658187 18.06111766 36.28231231 44.04655846 39.875 72.8125 C41.43404138 94.30315331 39.35463698 115.68415826 25 132.8125 C18.62581752 139.42003406 11.72476754 143.47350818 2.875 145.8125 C2.070625 146.039375 1.26625 146.26625 0.4375 146.5 C-15.07730853 148.39204982 -28.53321923 143.7014854 -41.10546875 134.671875 C-64.74154738 116.02382399 -76.40835167 88.42138934 -79.88623047 59.12011719 C-81.87922466 39.85858235 -77.89317555 20.41867665 -66.125 4.8125 C-49.09611949 -16.04083358 -20.50021914 -14.87580004 0 0 Z " fill="#66B9FF" transform="translate(92.125,180.1875)"/>
<path d="M0 0 C12.11995324 11.606198 18.35234435 28.30120353 19.02734375 44.94140625 C19.08728516 46.26978516 19.08728516 46.26978516 19.1484375 47.625 C19.79051021 76.06504399 9.29641482 104.95133362 -9.97265625 125.94140625 C-22.03116451 138.14115618 -35.61198144 146.5936054 -53.09765625 147.19140625 C-66.18211406 146.99638046 -76.97413795 142.36898923 -86.16015625 133.00390625 C-101.0182581 115.02743735 -102.71719509 92.94706691 -100.76171875 70.52246094 C-97.72175435 45.15487926 -84.36960632 19.51698176 -64.97265625 2.94140625 C-45.36321208 -12.11404544 -20.28226859 -16.98135688 0 0 Z " fill="#3693FF" transform="translate(480.97265625,180.05859375)"/>
</svg>
